<?xml version="1.0" standalone="no"?>
<!DOCTYPE svg PUBLIC "-//W3C//DTD SVG 20010904//EN"
 "http://www.w3.org/TR/2001/REC-SVG-20010904/DTD/svg10.dtd">
<svg version="1.0" xmlns="http://www.w3.org/2000/svg"
 width="1124.000000pt" height="1124.000000pt" viewBox="0 0 1124.000000 1124.000000"
 preserveAspectRatio="xMidYMid meet">
<metadata>
Created by potrace 1.11, written by Peter Selinger 2001-2013
</metadata>
<g transform="translate(0.000000,1124.000000) scale(0.100000,-0.100000)"
fill="#000000" stroke="none">
<path d="M4548 11209 c-7 -16 -16 -29 -20 -29 -5 0 -7 -3 -6 -7 3 -8 -70 -138
-103 -185 -10 -15 -19 -29 -19 -32 0 -2 -55 -100 -123 -218 -68 -117 -168
-289 -222 -383 -54 -93 -120 -207 -146 -253 -27 -45 -49 -87 -49 -92 0 -6 -4
-10 -8 -10 -4 0 -13 -12 -19 -27 -7 -16 -17 -35 -23 -43 -5 -8 -41 -69 -79
-135 -37 -66 -82 -144 -100 -173 -17 -29 -31 -55 -31 -58 0 -3 -8 -17 -19 -32
-10 -15 -97 -164 -194 -332 -309 -539 -768 -1332 -818 -1418 -27 -45 -49 -87
-49 -92 0 -6 -4 -10 -10 -10 -5 0 -10 -4 -10 -9 0 -5 -81 -150 -181 -322 -100
-173 -191 -332 -204 -354 -12 -22 -52 -91 -89 -154 -36 -62 -66 -118 -66 -122
0 -5 -4 -9 -10 -9 -5 0 -10 -4 -10 -10 0 -5 -32 -64 -71 -132 -40 -67 -80
-137 -90 -155 -11 -18 -27 -48 -38 -65 -82 -142 -205 -356 -212 -371 -8 -13
-6 -19 8 -24 10 -4 29 -14 43 -24 30 -20 564 -328 665 -383 11 -6 22 -13 25
-16 3 -3 14 -10 25 -16 43 -23 114 -64 198 -113 49 -28 93 -51 98 -51 5 0 9
-4 9 -9 0 -5 8 -11 18 -14 9 -4 37 -18 62 -33 45 -26 467 -271 525 -304 17
-10 102 -59 190 -110 88 -51 176 -101 195 -112 19 -11 109 -63 200 -116 91
-52 180 -103 198 -114 61 -34 97 -55 212 -122 103 -61 121 -68 177 -71 34 -2
84 2 110 9 52 14 164 62 173 74 3 4 16 12 30 18 31 14 290 204 333 244 18 17
35 30 39 30 4 0 13 6 20 12 7 7 36 31 63 53 28 21 52 42 55 45 10 13 159 110
212 138 29 16 74 33 98 38 25 4 47 8 50 9 38 11 62 16 95 20 22 3 51 8 65 10
117 19 304 24 435 11 44 -4 82 -9 85 -11 3 -2 26 -6 50 -10 72 -10 238 -52
330 -83 132 -46 247 -96 477 -208 117 -57 217 -104 223 -104 9 0 71 123 170
335 15 33 58 122 94 199 36 76 66 139 66 141 0 1 38 81 84 176 46 96 93 195
105 221 11 25 57 121 101 213 44 91 80 168 80 169 0 2 30 66 66 142 67 140
128 269 189 399 18 39 67 141 109 229 42 87 76 160 76 162 0 1 37 81 83 176
89 186 112 237 106 241 -2 1 -18 12 -36 25 -18 12 -34 22 -37 22 -6 0 -257
156 -273 170 -7 5 -14 10 -17 10 -9 0 -111 65 -114 73 -2 4 -8 7 -13 7 -10 0
-210 137 -219 150 -3 4 -12 11 -21 16 -29 16 -121 97 -192 168 -77 78 -110
141 -133 250 -25 118 -25 130 -29 443 -1 166 -6 337 -10 380 -7 88 -31 212
-47 251 -6 15 -12 29 -12 32 -1 3 -13 27 -26 54 -30 59 -101 133 -155 162 -22
12 -155 88 -295 169 -140 81 -295 170 -345 198 -49 28 -91 55 -93 59 -2 5 -7
8 -12 8 -5 0 -48 23 -97 51 -48 29 -108 63 -133 77 -25 13 -70 39 -100 57 -30
18 -71 42 -90 53 -19 11 -75 43 -123 71 -49 28 -93 51 -98 51 -5 0 -9 5 -9 10
0 6 -4 10 -9 10 -5 0 -119 63 -253 141 -133 78 -261 151 -283 163 -22 13 -138
80 -258 149 -120 70 -222 127 -228 127 -5 0 -9 5 -9 10 0 6 -6 10 -14 10 -7 0
-19 7 -26 15 -6 8 -15 14 -18 12 -4 -1 -56 28 -117 64 -144 85 -141 84 -157
48z m242 -192 c120 -67 384 -220 610 -352 58 -34 112 -64 120 -68 8 -4 22 -11
30 -17 8 -5 80 -47 160 -93 242 -140 483 -279 515 -297 17 -10 54 -31 83 -49
29 -17 54 -31 56 -31 3 0 160 -91 206 -120 8 -5 38 -21 65 -36 28 -14 57 -32
66 -40 8 -8 18 -14 21 -14 4 0 73 -39 155 -86 81 -48 164 -96 183 -106 256
-144 298 -175 340 -258 62 -122 81 -254 80 -565 0 -178 -7 -269 -25 -340 -8
-33 -17 -68 -20 -78 -11 -45 -73 -165 -112 -215 -38 -50 -124 -124 -154 -134
-13 -4 -6 -33 16 -61 13 -18 16 -17 69 18 50 33 78 60 144 139 12 15 40 61 61
103 l39 76 8 -44 c5 -24 9 -48 10 -54 0 -5 6 -23 12 -38 7 -16 12 -33 12 -38
0 -5 12 -33 26 -62 23 -46 180 -213 250 -267 11 -8 47 -36 79 -61 33 -25 106
-76 162 -113 57 -38 101 -71 100 -75 -2 -3 -63 -125 -134 -271 -72 -146 -305
-616 -518 -1045 -213 -429 -421 -850 -463 -935 -43 -85 -81 -158 -85 -161 -5
-3 -8 -9 -7 -13 4 -16 -124 -257 -134 -252 -185 81 -450 152 -646 173 -123 13
-363 7 -470 -11 -14 -3 -38 -7 -55 -10 -93 -15 -196 -41 -241 -61 -90 -41
-223 -134 -429 -300 -69 -55 -98 -77 -185 -141 -41 -30 -79 -58 -85 -62 -37
-29 -150 -89 -204 -107 -87 -30 -149 -25 -213 15 -27 16 -54 30 -59 30 -5 0
-9 5 -9 10 0 6 -5 10 -10 10 -6 0 -113 59 -238 132 -125 72 -240 139 -257 148
-44 25 -138 79 -155 90 -29 19 -502 290 -505 290 -1 0 -45 25 -96 56 -52 31
-107 64 -124 73 -25 14 -265 152 -323 186 -29 17 -172 98 -226 129 -28 15 -52
32 -54 37 -2 5 -9 9 -14 9 -6 0 -54 25 -105 55 -52 30 -98 55 -104 55 -5 0 -9
5 -9 10 0 6 -4 10 -9 10 -9 0 -99 49 -161 88 -14 9 -27 15 -29 13 -2 -1 -7 1
-10 6 -3 4 -22 17 -41 27 -19 11 -54 31 -77 45 l-42 26 54 93 c30 51 55 97 55
102 0 6 5 10 10 10 6 0 10 4 10 10 0 5 47 89 103 187 166 284 259 445 283 488
61 111 79 140 86 143 4 2 8 7 8 12 0 5 23 48 51 97 29 48 62 106 74 128 13 23
72 124 130 225 59 102 116 201 127 220 11 19 32 55 46 80 14 25 45 78 69 117
24 40 43 77 43 83 0 5 5 10 10 10 6 0 10 4 10 10 0 5 31 62 69 127 37 65 102
177 143 248 41 72 117 202 168 290 51 88 100 174 110 190 39 68 121 211 130
225 5 8 25 44 46 80 61 109 76 134 95 165 11 17 22 36 25 43 4 8 45 80 92 160
46 81 94 163 105 182 97 171 153 266 159 268 5 2 8 8 8 13 0 7 69 131 111 199
5 8 69 121 143 250 75 129 139 240 143 245 4 6 21 35 37 65 16 30 47 83 68
118 21 34 38 64 38 67 0 4 59 104 96 162 l14 22 77 -46 c43 -25 94 -55 113
-66z m3510 -3454 c50 -31 90 -60 90 -65 0 -5 -16 -40 -35 -78 -19 -39 -36 -73
-37 -77 0 -5 -12 -25 -25 -45 -13 -21 -20 -38 -17 -38 4 0 -1 -9 -12 -21 -10
-12 -18 -24 -18 -28 3 -10 -68 -156 -77 -159 -5 -2 -9 -10 -9 -17 0 -8 -13
-40 -30 -72 -16 -32 -61 -121 -98 -198 -38 -77 -86 -174 -107 -215 -22 -41
-39 -77 -40 -80 0 -3 -54 -115 -121 -250 -66 -135 -127 -260 -135 -277 -8 -18
-17 -33 -21 -33 -5 0 -8 -5 -8 -11 0 -11 -29 -72 -352 -725 l-163 -331 -103
47 c-56 26 -105 49 -107 52 -3 3 1 18 10 34 8 16 15 35 15 42 0 6 5 12 10 12
6 0 9 3 8 8 -2 10 135 285 147 294 6 4 7 8 3 8 -3 0 68 150 159 333 91 182
323 649 515 1037 433 873 451 910 461 910 4 0 48 -26 97 -57z m160 -102 c0 -4
-3 -11 -7 -15 -5 -4 -8 -11 -8 -14 -1 -4 -45 -97 -99 -207 -54 -110 -131 -267
-171 -350 -40 -82 -134 -276 -210 -430 -210 -428 -279 -570 -280 -575 -1 -3
-58 -121 -128 -262 -70 -141 -127 -260 -127 -263 0 -4 -10 -21 -22 -38 -13
-18 -22 -34 -21 -37 3 -10 -49 -115 -60 -122 -7 -4 -9 -8 -5 -8 4 0 -12 -39
-36 -87 -24 -49 -60 -123 -81 -165 -37 -79 -41 -83 -69 -72 -11 4 -12 10 -6
22 5 10 96 193 201 407 268 546 447 910 664 1350 362 734 405 823 405 834 0 6
4 11 9 11 5 0 11 9 14 20 3 13 10 18 21 14 9 -3 16 -9 16 -13z m55 -30 c3 -5
-34 -90 -81 -188 -99 -204 -191 -396 -274 -568 -159 -332 -288 -600 -421 -873
-49 -101 -89 -185 -89 -187 0 -2 -47 -99 -104 -217 -170 -351 -262 -541 -281
-585 -19 -43 -29 -50 -51 -35 -13 8 -1 34 235 516 72 147 131 272 131 276 0 4
7 13 15 20 8 6 13 15 12 18 -1 4 29 70 67 147 38 77 113 230 166 340 53 110
145 297 202 415 255 520 382 780 416 852 37 76 45 87 57 69z m-822 -1836 c-3
-9 -8 -14 -10 -11 -3 3 -2 9 2 15 9 16 15 13 8 -4z m-40 -85 c-3 -12 -8 -19
-11 -16 -5 6 5 36 12 36 2 0 2 -9 -1 -20z m-35 -75 c-6 -14 -13 -23 -15 -21
-5 5 15 46 22 46 3 0 -1 -11 -7 -25z m-30 -62 c-16 -39 -32 -54 -18 -19 12 33
19 46 25 46 3 0 -1 -12 -7 -27z m-42 -90 c-8 -15 -15 -25 -16 -21 0 12 23 58
27 54 3 -2 -2 -17 -11 -33z m-16 -37 c0 -3 -4 -8 -10 -11 -5 -3 -10 -1 -10 4
0 6 5 11 10 11 6 0 10 -2 10 -4z m-48 -98 c-17 -35 -53 -112 -82 -173 -90
-194 -105 -224 -113 -224 -5 -1 -7 2 -5 7 31 63 163 336 189 389 18 40 36 70
38 68 2 -3 -10 -33 -27 -67z"/>
<path d="M9313 2719 c-9 -9 -3 -22 23 -52 39 -47 42 -62 14 -77 -17 -9 -18
-14 -7 -33 6 -12 19 -31 29 -42 27 -34 115 -205 147 -289 49 -127 92 -316 100
-436 8 -118 -1 -368 -13 -388 -2 -4 -7 -26 -10 -48 -4 -22 -9 -51 -12 -64 -3
-14 -7 -35 -10 -47 -18 -87 -114 -310 -166 -385 -10 -14 -18 -29 -18 -33 0 -6
-92 -133 -133 -182 -57 -69 -207 -207 -290 -267 -106 -76 -288 -172 -398 -210
-88 -30 -230 -63 -321 -73 -83 -10 -318 -9 -388 1 -69 9 -202 36 -213 43 -4 2
-18 6 -32 9 -13 2 -64 19 -113 38 -352 134 -626 365 -809 681 -47 80 -103 199
-103 218 0 7 -5 18 -10 23 -6 6 -13 19 -15 30 -3 10 -16 59 -30 109 -13 49
-27 107 -30 130 -3 22 -8 47 -11 56 -5 20 -15 120 -17 179 l-2 45 -40 0 -40
-1 1 -49 c3 -103 13 -177 50 -352 2 -12 16 -54 30 -95 14 -40 27 -82 29 -93
11 -47 141 -288 203 -374 237 -333 620 -580 1017 -657 11 -2 31 -6 45 -9 85
-16 133 -19 285 -19 94 0 188 3 210 7 22 3 60 9 85 12 115 15 292 75 435 147
87 43 258 150 291 182 6 6 33 29 59 51 46 38 164 156 202 202 182 218 295 441
352 698 33 151 35 174 35 365 0 152 -4 206 -23 300 -24 124 -66 258 -112 358
-16 35 -29 65 -29 67 0 26 -210 335 -228 335 -4 0 -13 -5 -19 -11z"/>
<path d="M7185 2467 c-84 -27 -141 -112 -132 -196 9 -86 54 -140 135 -165 46
-13 58 -13 100 -1 89 27 142 99 138 190 -6 121 -129 209 -241 172z m118 -49
c82 -43 109 -141 60 -215 -54 -82 -187 -82 -245 0 -31 44 -31 121 1 166 42 59
125 81 184 49z"/>
</g>
</svg>
