<svg xmlns="http://www.w3.org/2000/svg" viewBox="0 0 205.16 280.95"><defs><style>.cls-1,.cls-2{fill:none;stroke:#fff;stroke-miterlimit:10;}.cls-1{stroke-width:2px;}</style></defs><title>drop 5</title><g id="Layer_2" data-name="Layer 2"><g id="Layer_2-2" data-name="Layer 2"><path class="cls-1" d="M203.79,131.52l-68.74,39.69h-.28c-7.39,2.32-20.77-13.86-28.28-16.19a54.55,54.55,0,0,0-14.05-1.71c-13.4.64-21.82,5.61-31.92,10.5L28.18,95.39c7.57-4.94,17.66-9.85,24.39-17.62C58.63,67.9,51,48.08,59.91,41.06l1.63-.94L128.65,1.37Z"/><path class="cls-2" d="M61.54,40.12l-1.63.94A6.59,6.59,0,0,1,61.54,40.12Z"/><line class="cls-2" x1="32.55" y1="92.98" x2="66.08" y2="161.08"/><line class="cls-2" x1="29.3" y1="94.67" x2="62.17" y2="163"/><line class="cls-2" x1="30.79" y1="93.74" x2="64.11" y2="162.05"/><line class="cls-2" x1="38.32" y1="89.15" x2="72.35" y2="157.83"/><line class="cls-2" x1="52.95" y1="138.47" x2="52.95" y2="138.47"/><path class="cls-1" d="M55.2,60.82s-.81,13.28,8.67,18.36a31.78,31.78,0,0,0,5.85,2.55c1.92.57,8.58,2.11,10.28,2.56s38.3,7.26,40.19,7.73c30.44,7.57,75.55,44.14,75.55,44.14"/><path class="cls-2" d="M32.7,278.89a40.41,40.41,0,0,1-22.36-66,41.18,41.18,0,0,1,7.06-6.45c-1.07,1.28-2.1,2.47-3.05,3.56-2.73,3.17-4.74,5.4-5.13,5.84l-.06.07,0,0q-.93,1.27-1.74,2.61a40.42,40.42,0,0,0,25.3,60.34Z"/><path class="cls-1" d="M82.34,239.54a40.41,40.41,0,0,1-40.41,40.41,41,41,0,0,1-9.13-1l-.1,0A40.42,40.42,0,0,1,7.4,218.55q.81-1.34,1.74-2.61l0,0,.06-.07A61,61,0,0,1,14.35,210c1-1,2-2.28,3.05-3.56,6.6-7.78,15.12-18.4,17.65-24.1,1.53-3.45,3.41-10.42,4.47-17.13a167.62,167.62,0,0,0,1.71-17.14,127.82,127.82,0,0,0,2,16.48,85.89,85.89,0,0,0,5.49,17.93c3.48,7.14,13.92,19.68,20.47,27.21A40.35,40.35,0,0,1,82.34,239.54Z"/><circle class="cls-2" cx="62.23" cy="223.81" r="4.23"/></g></g></svg>