<?xml version="1.0" encoding="utf-8"?>
<!-- Generator: Adobe Illustrator 21.1.0, SVG Export Plug-In . SVG Version: 6.00 Build 0)  -->
<svg version="1.1" xmlns="http://www.w3.org/2000/svg" xmlns:xlink="http://www.w3.org/1999/xlink" x="0px" y="0px"
	 viewBox="0 0 350 350" style="enable-background:new 0 0 350 350;" xml:space="preserve">
<style type="text/css">
	.st0{display:none;}
	.st1{display:inline;fill:#0CA8ED;}
	.st2{fill:#2D4864;}
	.st3{fill:none;stroke:#FFFFFF;stroke-width:9;stroke-miterlimit:10;}
</style>
<g id="Layer_2_1_" class="st0">
	<rect x="25" y="25" class="st1" width="300" height="300"/>
</g>
<g id="Layer_4">
	<circle class="st2" cx="175" cy="175" r="175"/>
</g>
<g id="Layer_1">
	<title>drop 14</title>
	<g id="Layer_2">
		<g id="Layer_2-2">
			<path class="st3" d="M73.8,166l68.7,39.7h0.3c7.4,2.3,20.8-13.9,28.3-16.2c4.6-1.2,9.3-1.8,14.1-1.7c13.4,0.6,21.8,5.6,31.9,10.5
				l32.4-68.4c-7.6-4.9-17.7-9.8-24.4-17.6c-6.1-9.9,1.5-29.7-7.3-36.7l-1.6-0.9l-67.1-38.7L73.8,166z"/>
			<path class="st3" d="M216,74.6l1.6,0.9C217.2,75.2,216.6,74.9,216,74.6z"/>
			<line class="st3" x1="245" y1="127.5" x2="211.5" y2="195.6"/>
			<line class="st3" x1="248.3" y1="129.2" x2="215.4" y2="197.5"/>
			<line class="st3" x1="246.8" y1="128.3" x2="213.5" y2="196.6"/>
			<line class="st3" x1="239.3" y1="123.7" x2="205.2" y2="192.4"/>
			<line class="st3" x1="224.6" y1="173" x2="224.6" y2="173"/>
			<path class="st3" d="M222.4,95.3c0,0,0.8,13.3-8.7,18.4c-1.9,1-3.8,1.9-5.9,2.6c-1.9,0.6-8.6,2.1-10.3,2.6s-38.3,7.3-40.2,7.7
				c-30.5,7.6-75.6,44.2-75.6,44.2"/>
			<path class="st3" d="M244.9,313.4c21.9-4.5,35.9-25.9,31.4-47.8c-1.4-6.7-4.5-13-9-18.2c-2.1-2.4-4.5-4.6-7.1-6.4
				c1.1,1.3,2.1,2.5,3.1,3.6c2.7,3.2,4.7,5.4,5.1,5.8l0.1,0.1l0,0c0.6,0.8,1.2,1.7,1.7,2.6c11.6,19.1,5.5,43.9-13.6,55.5
				C253,310.8,249,312.4,244.9,313.4L244.9,313.4z"/>
			<path class="st3" d="M195.2,274.1c0,22.3,18.1,40.4,40.4,40.4c3.1,0,6.1-0.3,9.1-1h0.1c21.7-5.1,35.2-26.9,30.1-48.6
				c-1-4.1-2.6-8.1-4.8-11.7c-0.5-0.9-1.1-1.8-1.7-2.6l0,0l-0.1-0.1c-1.6-2.1-3.3-4-5.1-5.8c-1-1-2-2.3-3-3.6
				c-6.6-7.8-15.1-18.4-17.7-24.1c-1.5-3.4-3.4-10.4-4.5-17.1c-0.9-5.7-1.4-11.4-1.7-17.1c-0.3,5.5-1,11-2,16.5
				c-1.2,6.2-3,12.2-5.5,17.9c-3.5,7.1-13.9,19.6-20.5,27.1C200,251.9,195.2,262.7,195.2,274.1z"/>
			<circle class="st3" cx="215.3" cy="258.3" r="4.2"/>
		</g>
	</g>
</g>
</svg>
