<svg xmlns="http://www.w3.org/2000/svg" viewBox="0 0 205.84 282.13"><defs><style>.cls-1,.cls-2{fill:none;stroke:#fff;stroke-miterlimit:10;}.cls-1{stroke-width:3px;}</style></defs><title>drop 19</title><g id="Layer_2" data-name="Layer 2"><g id="Layer_2-2" data-name="Layer 2"><path class="cls-1" d="M2,132.2l68.74,39.69h.28c7.39,2.32,20.77-13.86,28.28-16.19A54.55,54.55,0,0,1,113.4,154c13.4.64,21.82,5.61,31.92,10.5l32.34-68.42c-7.57-4.94-17.66-9.85-24.39-17.62-6.06-9.87,1.54-29.69-7.34-36.71l-1.63-.94L77.19,2Z"/><path class="cls-2" d="M144.3,40.8l1.63.94A6.59,6.59,0,0,0,144.3,40.8Z"/><line class="cls-2" x1="173.29" y1="93.66" x2="139.76" y2="161.76"/><line class="cls-2" x1="176.54" y1="95.36" x2="143.67" y2="163.69"/><line class="cls-2" x1="175.05" y1="94.42" x2="141.73" y2="162.73"/><line class="cls-2" x1="167.52" y1="89.84" x2="133.48" y2="158.52"/><line class="cls-2" x1="152.89" y1="139.15" x2="152.89" y2="139.15"/><path class="cls-1" d="M150.64,61.51s.81,13.28-8.67,18.36a31.78,31.78,0,0,1-5.85,2.55c-1.92.57-8.58,2.11-10.28,2.56s-38.3,7.26-40.19,7.73C55.2,100.27,10.1,136.84,10.1,136.84"/><path class="cls-2" d="M173.14,279.57a40.41,40.41,0,0,0,22.36-66,41.18,41.18,0,0,0-7.06-6.45c1.07,1.28,2.1,2.47,3.05,3.56,2.73,3.17,4.74,5.4,5.13,5.84l.06.07,0,0q.93,1.27,1.74,2.61a40.42,40.42,0,0,1-25.3,60.34Z"/><path class="cls-1" d="M123.5,240.22a40.41,40.41,0,0,0,40.41,40.41,41,41,0,0,0,9.13-1l.1,0a40.42,40.42,0,0,0,25.3-60.34q-.81-1.34-1.74-2.61l0,0-.06-.07a61,61,0,0,0-5.13-5.84c-1-1-2-2.28-3.05-3.56-6.6-7.78-15.12-18.4-17.65-24.1-1.53-3.45-3.41-10.42-4.47-17.13a167.62,167.62,0,0,1-1.71-17.14,127.82,127.82,0,0,1-2,16.48,85.89,85.89,0,0,1-5.49,17.93c-3.48,7.14-13.92,19.68-20.47,27.21A40.35,40.35,0,0,0,123.5,240.22Z"/><circle class="cls-2" cx="143.61" cy="224.5" r="4.23"/></g></g></svg>
