<?xml version="1.0" encoding="utf-8"?>
<!-- Generator: Adobe Illustrator 21.1.0, SVG Export Plug-In . SVG Version: 6.00 Build 0)  -->
<svg version="1.1" xmlns="http://www.w3.org/2000/svg" xmlns:xlink="http://www.w3.org/1999/xlink" x="0px" y="0px"
	 viewBox="0 0 300 300" style="enable-background:new 0 0 300 300;" xml:space="preserve">
<style type="text/css">
	.st0{fill:#0CA8ED;}
	.st1{fill:none;stroke:#FFFFFF;stroke-width:9;stroke-miterlimit:10;}
</style>
<g id="Layer_2_1_">
	<rect class="st0" width="300" height="300"/>
</g>
<g id="Layer_1">
	<title>drop 14</title>
	<g id="Layer_2">
		<g id="Layer_2-2">
			<path class="st1" d="M48.8,141l68.7,39.7h0.3c7.4,2.3,20.8-13.9,28.3-16.2c4.6-1.2,9.3-1.8,14.1-1.7c13.4,0.6,21.8,5.6,31.9,10.5
				l32.4-68.4c-7.6-4.9-17.7-9.8-24.4-17.6c-6.1-9.9,1.5-29.7-7.3-36.7l-1.6-0.9l-67.1-38.8L48.8,141z"/>
			<path class="st1" d="M191,49.6l1.6,0.9C192.2,50.2,191.6,49.9,191,49.6z"/>
			<line class="st1" x1="220" y1="102.5" x2="186.5" y2="170.6"/>
			<line class="st1" x1="223.3" y1="104.2" x2="190.4" y2="172.5"/>
			<line class="st1" x1="221.8" y1="103.3" x2="188.5" y2="171.6"/>
			<line class="st1" x1="214.3" y1="98.7" x2="180.2" y2="167.4"/>
			<line class="st1" x1="199.6" y1="148" x2="199.6" y2="148"/>
			<path class="st1" d="M197.4,70.3c0,0,0.8,13.3-8.7,18.4c-1.9,1-3.8,1.9-5.9,2.6c-1.9,0.6-8.6,2.1-10.3,2.6s-38.3,7.3-40.2,7.7
				c-30.5,7.6-75.6,44.2-75.6,44.2"/>
			<path class="st1" d="M219.9,288.4c21.9-4.5,35.9-25.9,31.4-47.8c-1.4-6.7-4.5-13-9-18.2c-2.1-2.4-4.5-4.6-7.1-6.4
				c1.1,1.3,2.1,2.5,3.1,3.6c2.7,3.2,4.7,5.4,5.1,5.8l0.1,0.1l0,0c0.6,0.8,1.2,1.7,1.7,2.6c11.6,19.1,5.5,43.9-13.6,55.5
				C228,285.8,224,287.4,219.9,288.4L219.9,288.4z"/>
			<path class="st1" d="M170.2,249.1c0,22.3,18.1,40.4,40.4,40.4c3.1,0,6.1-0.3,9.1-1h0.1c21.7-5.1,35.2-26.9,30.1-48.6
				c-1-4.1-2.6-8.1-4.8-11.7c-0.5-0.9-1.1-1.8-1.7-2.6l0,0l-0.1-0.1c-1.6-2.1-3.3-4-5.1-5.8c-1-1-2-2.3-3.1-3.6
				c-6.6-7.8-15.1-18.4-17.6-24.1c-1.5-3.4-3.4-10.4-4.5-17.1c-0.9-5.7-1.4-11.4-1.7-17.1c-0.3,5.5-1,11-2,16.5
				c-1.2,6.2-3,12.2-5.5,17.9c-3.5,7.1-13.9,19.6-20.5,27.1C175,226.9,170.2,237.7,170.2,249.1z"/>
			<circle class="st1" cx="190.3" cy="233.3" r="4.2"/>
		</g>
	</g>
</g>
</svg>
