<svg xmlns="http://www.w3.org/2000/svg" viewBox="0 0 205.16 280.95"><defs><style>.cls-1,.cls-2{fill:none;stroke:#fff;stroke-miterlimit:10;}.cls-1{stroke-width:2px;}</style></defs><title>drop 14</title><g id="Layer_2" data-name="Layer 2"><g id="Layer_2-2" data-name="Layer 2"><path class="cls-1" d="M1.37,131.52l68.74,39.69h.28c7.39,2.32,20.77-13.86,28.28-16.19a54.55,54.55,0,0,1,14.05-1.71c13.4.64,21.82,5.61,31.92,10.5L177,95.39c-7.57-4.94-17.66-9.85-24.39-17.62-6.06-9.87,1.54-29.69-7.34-36.71l-1.63-.94L76.51,1.37Z"/><path class="cls-2" d="M143.62,40.12l1.63.94A6.59,6.59,0,0,0,143.62,40.12Z"/><line class="cls-2" x1="172.6" y1="92.98" x2="139.08" y2="161.08"/><line class="cls-2" x1="175.86" y1="94.67" x2="142.98" y2="163"/><line class="cls-2" x1="174.36" y1="93.74" x2="141.05" y2="162.05"/><line class="cls-2" x1="166.84" y1="89.15" x2="132.8" y2="157.83"/><line class="cls-2" x1="152.21" y1="138.47" x2="152.21" y2="138.47"/><path class="cls-1" d="M150,60.82s.81,13.28-8.67,18.36a31.78,31.78,0,0,1-5.85,2.55c-1.92.57-8.58,2.11-10.28,2.56S86.86,91.55,85,92C54.52,99.59,9.41,136.16,9.41,136.16"/><path class="cls-2" d="M172.46,278.89a40.41,40.41,0,0,0,22.36-66,41.18,41.18,0,0,0-7.06-6.45c1.07,1.28,2.1,2.47,3.05,3.56,2.73,3.17,4.74,5.4,5.13,5.84l.06.07,0,0q.93,1.27,1.74,2.61a40.42,40.42,0,0,1-25.3,60.34Z"/><path class="cls-1" d="M122.82,239.54a40.41,40.41,0,0,0,40.41,40.41,41,41,0,0,0,9.13-1l.1,0a40.42,40.42,0,0,0,25.3-60.34q-.81-1.34-1.74-2.61l0,0-.06-.07a61,61,0,0,0-5.13-5.84c-1-1-2-2.28-3.05-3.56-6.6-7.78-15.12-18.4-17.65-24.1-1.53-3.45-3.41-10.42-4.47-17.13a167.62,167.62,0,0,1-1.71-17.14,127.82,127.82,0,0,1-2,16.48,85.89,85.89,0,0,1-5.49,17.93C153,189.63,142.52,202.17,136,209.7A40.35,40.35,0,0,0,122.82,239.54Z"/><circle class="cls-2" cx="142.93" cy="223.81" r="4.23"/></g></g></svg>
