<svg xmlns="http://www.w3.org/2000/svg" viewBox="0 0 159.48 289.53"><defs><style>.cls-1,.cls-2,.cls-5{fill:none;}.cls-1,.cls-2,.cls-3,.cls-4,.cls-5{stroke:#fff;stroke-miterlimit:10;}.cls-1{stroke-width:3px;}.cls-2{stroke-width:2px;}.cls-4{fill:#050606;}</style></defs><title>flaske2</title><g id="Layer_2" data-name="Layer 2"><g id="Layer_2-2" data-name="Layer 2"><path class="cls-1" d="M158,77.52V274a14,14,0,0,1-14,14H15.57A14.07,14.07,0,0,1,1.5,274q0-58.9,0-117.79V144q0-12.61,0-25.22,0-19.25,0-38.51L45.75,36h68.33Z"/><path class="cls-2" d="M52.28,1h56a5.83,5.83,0,0,1,5.83,5.83V30.9a.39.39,0,0,1-.39.39H46.85a.39.39,0,0,1-.39-.39V6.82A5.82,5.82,0,0,1,52.28,1Z"/><path class="cls-3" d="M67.77,166.52"/><path class="cls-4" d="M158,93.57"/><path class="cls-1" d="M158,115.55A48.32,48.32,0,0,0,138.1,108c-22.93-3.15-40,12.1-42.87,14.71-8.08,9.4-26.39,27.95-55.9,37a117.33,117.33,0,0,1-37.82,5"/><line class="cls-5" x1="51.77" y1="1" x2="51.77" y2="31.29"/><line class="cls-5" x1="62.14" y1="1.4" x2="62.14" y2="31.69"/><line class="cls-5" x1="59.08" y1="1" x2="59.08" y2="31.29"/><line class="cls-5" x1="55.93" y1="1" x2="55.93" y2="31.29"/><line class="cls-5" x1="64.89" y1="1" x2="64.89" y2="31.29"/><line class="cls-5" x1="67" y1="1" x2="67" y2="31.29"/><line class="cls-5" x1="68.84" y1="1" x2="68.84" y2="31.29"/><line class="cls-5" x1="70.63" y1="1" x2="70.63" y2="31.29"/><line class="cls-5" x1="51.77" y1="1" x2="51.77" y2="31.29"/><line class="cls-5" x1="59.08" y1="1" x2="59.08" y2="31.29"/><line class="cls-5" x1="60.08" y1="1" x2="60.08" y2="31.29"/><line class="cls-5" x1="59.08" y1="12.59" x2="59.08" y2="12.59"/></g></g></svg>
