<svg xmlns="http://www.w3.org/2000/svg" viewBox="0 0 158.48 289.03"><defs><style>.cls-1,.cls-4{fill:none;}.cls-1,.cls-2,.cls-3,.cls-4{stroke:#fff;stroke-miterlimit:10;}.cls-1{stroke-width:2px;}.cls-3{fill:#050606;}</style></defs><title>flaske2 8</title><g id="Layer_2" data-name="Layer 2"><g id="Layer_2-2" data-name="Layer 2"><path class="cls-1" d="M157.48,77.52V274a14,14,0,0,1-14,14H15.07A14.07,14.07,0,0,1,1,274q0-58.9,0-117.79V144q0-12.61,0-25.22Q1,99.54,1,80.28L45.25,36h68.33Z"/><path class="cls-1" d="M51.78,1h56a5.83,5.83,0,0,1,5.83,5.83V30.9a.39.39,0,0,1-.39.39H46.35A.39.39,0,0,1,46,30.9V6.82A5.82,5.82,0,0,1,51.78,1Z"/><path class="cls-2" d="M67.27,166.52"/><path class="cls-3" d="M157.48,93.57"/><path class="cls-1" d="M157.48,115.55A48.32,48.32,0,0,0,137.6,108c-22.93-3.15-40,12.1-42.87,14.71-8.08,9.4-26.39,27.95-55.9,37a117.33,117.33,0,0,1-37.82,5"/><line class="cls-4" x1="51.27" y1="1" x2="51.27" y2="31.29"/><line class="cls-4" x1="61.64" y1="1.4" x2="61.64" y2="31.69"/><line class="cls-4" x1="58.58" y1="1" x2="58.58" y2="31.29"/><line class="cls-4" x1="55.43" y1="1" x2="55.43" y2="31.29"/><line class="cls-4" x1="64.39" y1="1" x2="64.39" y2="31.29"/><line class="cls-4" x1="66.5" y1="1" x2="66.5" y2="31.29"/><line class="cls-4" x1="68.34" y1="1" x2="68.34" y2="31.29"/><line class="cls-4" x1="70.13" y1="1" x2="70.13" y2="31.29"/><line class="cls-4" x1="51.27" y1="1" x2="51.27" y2="31.29"/><line class="cls-4" x1="58.58" y1="1" x2="58.58" y2="31.29"/><line class="cls-4" x1="59.58" y1="1" x2="59.58" y2="31.29"/><line class="cls-4" x1="58.58" y1="12.59" x2="58.58" y2="12.59"/></g></g></svg>
