<svg xmlns="http://www.w3.org/2000/svg" viewBox="0 0 159.48 344.22"><defs><style>.cls-1,.cls-2,.cls-5{fill:none;}.cls-1,.cls-2,.cls-3,.cls-4,.cls-5{stroke:#fff;stroke-miterlimit:10;}.cls-1{stroke-width:3px;}.cls-2{stroke-width:2px;}.cls-4{fill:#050606;}</style></defs><title>flaske1</title><g id="Layer_2" data-name="Layer 2"><g id="Layer_2-2" data-name="Layer 2"><path class="cls-1" d="M158,92.1V326c0,9.22-6.28,16.69-14,16.69H15.57C7.8,342.72,1.5,335.22,1.5,326q0-70.12,0-140.24V171.26q0-15,0-30,0-22.92,0-45.85L45.75,42.71h68.33Z"/><path class="cls-2" d="M52.28,1h56a5.83,5.83,0,0,1,5.83,5.83V36.67a.39.39,0,0,1-.39.39H46.85a.39.39,0,0,1-.39-.39V6.82A5.82,5.82,0,0,1,52.28,1Z"/><path class="cls-3" d="M67.77,198.06"/><path class="cls-4" d="M158,111.2"/><path class="cls-1" d="M158,137.37a44.14,44.14,0,0,0-19.88-9c-22.93-3.75-40,14.4-42.87,17.51-8.08,11.19-26.39,33.28-55.9,44a99.8,99.8,0,0,1-37.82,6"/><line class="cls-5" x1="51.77" y1="1" x2="51.77" y2="37.06"/><line class="cls-5" x1="62.14" y1="1.48" x2="62.14" y2="37.54"/><line class="cls-5" x1="59.08" y1="1" x2="59.08" y2="37.06"/><line class="cls-5" x1="55.93" y1="1" x2="55.93" y2="37.06"/><line class="cls-5" x1="64.89" y1="1" x2="64.89" y2="37.06"/><line class="cls-5" x1="67" y1="1" x2="67" y2="37.06"/><line class="cls-5" x1="68.84" y1="1" x2="68.84" y2="37.06"/><line class="cls-5" x1="70.63" y1="1" x2="70.63" y2="37.06"/><line class="cls-5" x1="51.77" y1="1" x2="51.77" y2="37.06"/><line class="cls-5" x1="59.08" y1="1" x2="59.08" y2="37.06"/><line class="cls-5" x1="60.08" y1="1" x2="60.08" y2="37.06"/><line class="cls-5" x1="59.08" y1="14.8" x2="59.08" y2="14.8"/></g></g></svg>
