<svg xmlns="http://www.w3.org/2000/svg" viewBox="0 0 159.48 213.56"><defs><style>.cls-1,.cls-2,.cls-5{fill:none;}.cls-1,.cls-2,.cls-3,.cls-4,.cls-5{stroke:#fff;stroke-miterlimit:10;}.cls-1{stroke-width:3px;}.cls-2{stroke-width:2px;}.cls-4{fill:#050606;}</style></defs><title>flaske3</title><g id="Layer_2" data-name="Layer 2"><g id="Layer_2-2" data-name="Layer 2"><path class="cls-1" d="M154.8,55.06A7.41,7.41,0,0,1,158,61.14V201.75c0,5.69-6.28,10.31-14,10.31H15.57c-7.77,0-14.07-4.63-14.07-10.35q0-43.31,0-86.62v-8.94q0-9.27,0-18.55,0-12.37,0-24.74a7.08,7.08,0,0,1,2.88-5.7L45.75,26.76h68.33Z"/><path class="cls-2" d="M52.28,1h56a5.83,5.83,0,0,1,5.83,5.83v16a.39.39,0,0,1-.39.39H46.85a.39.39,0,0,1-.39-.39V6.82A5.82,5.82,0,0,1,52.28,1Z"/><path class="cls-3" d="M67.77,122.71"/><path class="cls-4" d="M158,69.07"/><path class="cls-1" d="M158,85.23a59.49,59.49,0,0,0-19.88-5.56c-22.93-2.32-40,8.9-42.87,10.82-8.08,6.91-26.39,20.55-55.9,27.2A157.33,157.33,0,0,1,1.5,121.39"/><line class="cls-5" x1="51.77" y1="1" x2="51.77" y2="23.27"/><line class="cls-5" x1="62.14" y1="1.3" x2="62.14" y2="23.57"/><line class="cls-5" x1="59.08" y1="1" x2="59.08" y2="23.27"/><line class="cls-5" x1="55.93" y1="1" x2="55.93" y2="23.27"/><line class="cls-5" x1="64.89" y1="1" x2="64.89" y2="23.27"/><line class="cls-5" x1="67" y1="1" x2="67" y2="23.27"/><line class="cls-5" x1="68.84" y1="1" x2="68.84" y2="23.27"/><line class="cls-5" x1="70.63" y1="1" x2="70.63" y2="23.27"/><line class="cls-5" x1="51.77" y1="1" x2="51.77" y2="23.27"/><line class="cls-5" x1="59.08" y1="1" x2="59.08" y2="23.27"/><line class="cls-5" x1="60.08" y1="1" x2="60.08" y2="23.27"/><line class="cls-5" x1="59.08" y1="9.52" x2="59.08" y2="9.52"/></g></g></svg>
