<svg xmlns="http://www.w3.org/2000/svg" viewBox="0 0 158.48 213.06"><defs><style>.cls-1,.cls-4{fill:none;}.cls-1,.cls-2,.cls-3,.cls-4{stroke:#fff;stroke-miterlimit:10;}.cls-1{stroke-width:2px;}.cls-3{fill:#050606;}</style></defs><title>flaske3 7</title><g id="Layer_2" data-name="Layer 2"><g id="Layer_2-2" data-name="Layer 2"><path class="cls-1" d="M154.3,55.06a7.41,7.41,0,0,1,3.18,6.09V201.75c0,5.69-6.28,10.31-14,10.31H15.07C7.3,212.06,1,207.43,1,201.71q0-43.31,0-86.62v-8.94q0-9.27,0-18.55Q1,75.25,1,62.88a7.08,7.08,0,0,1,2.88-5.7L45.25,26.76h68.33Z"/><path class="cls-1" d="M51.78,1h56a5.83,5.83,0,0,1,5.83,5.83v16a.39.39,0,0,1-.39.39H46.35a.39.39,0,0,1-.39-.39V6.82A5.82,5.82,0,0,1,51.78,1Z"/><path class="cls-2" d="M67.27,122.71"/><path class="cls-3" d="M157.48,69.07"/><path class="cls-1" d="M157.48,85.23a59.49,59.49,0,0,0-19.88-5.56c-22.93-2.32-40,8.9-42.87,10.82-8.08,6.91-26.39,20.55-55.9,27.2A157.33,157.33,0,0,1,1,121.39"/><line class="cls-4" x1="51.27" y1="1" x2="51.27" y2="23.27"/><line class="cls-4" x1="61.64" y1="1.3" x2="61.64" y2="23.57"/><line class="cls-4" x1="58.58" y1="1" x2="58.58" y2="23.27"/><line class="cls-4" x1="55.43" y1="1" x2="55.43" y2="23.27"/><line class="cls-4" x1="64.39" y1="1" x2="64.39" y2="23.27"/><line class="cls-4" x1="66.5" y1="1" x2="66.5" y2="23.27"/><line class="cls-4" x1="68.34" y1="1" x2="68.34" y2="23.27"/><line class="cls-4" x1="70.13" y1="1" x2="70.13" y2="23.27"/><line class="cls-4" x1="51.27" y1="1" x2="51.27" y2="23.27"/><line class="cls-4" x1="58.58" y1="1" x2="58.58" y2="23.27"/><line class="cls-4" x1="59.58" y1="1" x2="59.58" y2="23.27"/><line class="cls-4" x1="58.58" y1="9.52" x2="58.58" y2="9.52"/></g></g></svg>
