<svg xmlns="http://www.w3.org/2000/svg" viewBox="0 0 426.46 322.49"><defs><style>.cls-1,.cls-2,.cls-3{fill:none;stroke:#fff;stroke-miterlimit:10;}.cls-2{stroke-width:3px;}.cls-3{stroke-width:5px;}</style></defs><title>genbruge p17</title><g id="Layer_2" data-name="Layer 2"><g id="Layer_2-2" data-name="Layer 2"><path class="cls-1" d="M164,79.89"/><path class="cls-2" d="M124,111a.56.56,0,0,1-.74,0c-.39-.38-.94-1-.85-1.31,6-20.93,36-31.05,37.08-31.43L158,73.37a1.4,1.4,0,0,1,1.8-1s4.86,2,6.5,2.49,6.43,1.54,6.43,1.54-2.33,4.34-2.93,5.91-1.72,6.38-1.72,6.38a1.35,1.35,0,0,1-1.75.83l-3.53-4.92C159.71,86.39,148,93,144,95.73,139.19,99,126.39,109.11,124,111Z"/><path class="cls-2" d="M175.69,79.91a.56.56,0,0,1,.4-.62c.52-.15,1.33-.32,1.56-.08,15.12,15.67,8.9,46.68,8.66,47.83l5,1.07a1.4,1.4,0,0,1-.07,2s-4.15,3.22-5.41,4.38-4.55,4.79-4.55,4.79-2.59-4.19-3.66-5.49-4.66-4.68-4.66-4.68a1.35,1.35,0,0,1,.16-1.93l6-.59c0-3.53.14-16.94-.21-21.77C178.46,99,176.13,82.88,175.69,79.91Z"/><path class="cls-2" d="M176.31,139.66a.56.56,0,0,1,.37.64c-.11.53-.32,1.33-.64,1.42-20.84,6.3-45.59-13.39-46.51-14.13l-3.22,3.92a1.4,1.4,0,0,1-1.78-1s-1-5.16-1.43-6.81-2.19-6.24-2.19-6.24,4.91-.39,6.55-.75,6.29-2,6.29-2a1.35,1.35,0,0,1,1.65,1l-2.22,5.63c3.13,1.64,15,7.86,19.46,9.75C158.06,133.4,173.47,138.69,176.31,139.66Z"/><path class="cls-3" d="M106.77,47.72V319.66a.16.16,0,0,1-.26.13L4.68,242.94,2.5,6.06a.16.16,0,0,1,.23-.15Z"/><path class="cls-3" d="M203.28,47.08a0,0,0,0,1,0,0l-92.87.6-3.64,0L3,5.89a.19.19,0,0,1,.07-.37L79,2.72a1.78,1.78,0,0,1,.66.1l30.46,10.9Z"/><polygon class="cls-3" points="203.28 249.53 203.28 319.99 171.83 319.99 184.32 297.37 193.94 279.93 203.28 249.53"/><polygon class="cls-3" points="209.26 230.06 203.28 249.53 193.94 279.93 184.32 297.37 171.83 319.99 112.77 319.99 138.93 280.17 142.91 266.12 153.15 230.03 155.02 204.76 209.24 204.76 209.26 230.06"/><path class="cls-3" d="M203.28,47.72v157H155L153.15,230l-10.24,36.09-4,14.05L112.77,320h-5.59a.41.41,0,0,1-.41-.41V47.72Z"/><path class="cls-3" d="M214.29,47.72v272a.11.11,0,0,1-.18.09l-10.83-8.17V249.53l6-19.47,0-25.29h-6v-157H110.41v0l92.87-.6a0,0,0,0,0,0,0L110.1,13.73,110,6.49a.46.46,0,0,1,.63-.43Z"/><path class="cls-3" d="M310.8,47.08h0l-93.21.61-3.29,0h0L110.9,5.89a.12.12,0,0,1,0-.23l75.77-3a.68.68,0,0,1,.26,0L217.27,13.6Z"/><polygon class="cls-3" points="423.96 229.85 417.98 249.32 408.64 279.72 386.53 319.78 327.47 319.78 353.63 279.96 367.85 229.82 369.72 204.56 423.94 204.56 423.96 229.85"/><path class="cls-3" d="M418,47.51v157H369.72l-1.87,25.26L353.63,280l-26.16,39.82h-5.85a.15.15,0,0,1-.15-.15V47.51Z"/><polygon class="cls-3" points="408.64 279.72 417.98 249.32 417.98 319.78 386.53 319.78 408.64 279.72"/><polygon class="cls-3" points="316.79 230.06 310.81 249.53 301.47 279.93 291.82 297.42 279.36 319.99 220.3 319.99 246.46 280.17 250.43 266.18 260.68 230.03 262.55 204.76 316.77 204.76 316.79 230.06"/><path class="cls-3" d="M310.81,47.72v157H262.55L260.68,230l-10.25,36.15-4,14L220.3,320h-5.79a.21.21,0,0,1-.21-.21V47.72Z"/><polygon class="cls-3" points="310.81 249.53 310.81 319.99 279.36 319.99 291.82 297.42 301.47 279.93 310.81 249.53"/><path class="cls-3" d="M321.46,47.52V319.69s.16.1,0,0l-10.65-8V249.53l6-19.47,0-25.29h-6v-157H217.59v0l93.21-.61h0L217.27,13.6l-.06-6.92a.72.72,0,0,1,1-.67Z"/><path class="cls-3" d="M321.46,47.51,218.28,6a.09.09,0,0,1,0-.17L294,2.5H294L418,46.88h0Z"/><path class="cls-1" d="M270.29,80.25"/><path class="cls-2" d="M230.29,111.33a.56.56,0,0,1-.74,0c-.39-.38-.94-1-.85-1.31,6-20.93,36-31.05,37.08-31.43l-1.55-4.83a1.4,1.4,0,0,1,1.8-1s4.86,2,6.5,2.49S279,76.81,279,76.81s-2.33,4.34-2.93,5.91-1.72,6.38-1.72,6.38a1.35,1.35,0,0,1-1.75.83L269,85c-3.08,1.74-14.73,8.35-18.74,11.07C245.44,99.38,232.64,109.47,230.29,111.33Z"/><path class="cls-2" d="M281.95,80.27a.56.56,0,0,1,.4-.62c.52-.15,1.33-.32,1.56-.08,15.12,15.67,8.9,46.68,8.66,47.83l5,1.07a1.4,1.4,0,0,1-.07,2s-4.15,3.22-5.41,4.38-4.55,4.79-4.55,4.79-2.59-4.19-3.66-5.49-4.66-4.68-4.66-4.68a1.35,1.35,0,0,1,.16-1.93l6-.59c0-3.53.14-16.94-.21-21.77C284.72,99.36,282.38,83.24,281.95,80.27Z"/><path class="cls-2" d="M282.57,140a.56.56,0,0,1,.37.64c-.11.53-.32,1.33-.64,1.42-20.84,6.3-45.59-13.39-46.51-14.13l-3.22,3.92a1.4,1.4,0,0,1-1.78-1s-1-5.16-1.43-6.81-2.19-6.24-2.19-6.24,4.91-.39,6.55-.75,6.29-2,6.29-2a1.35,1.35,0,0,1,1.65,1l-2.22,5.63c3.13,1.64,15,7.86,19.46,9.75C264.31,133.76,279.73,139,282.57,140Z"/><path class="cls-1" d="M377.46,80.25"/><path class="cls-2" d="M337.46,111.33a.56.56,0,0,1-.74,0c-.39-.38-.94-1-.85-1.31,6-20.93,36-31.05,37.08-31.43l-1.55-4.83a1.4,1.4,0,0,1,1.8-1s4.86,2,6.5,2.49,6.43,1.54,6.43,1.54-2.33,4.34-2.93,5.91-1.72,6.38-1.72,6.38a1.35,1.35,0,0,1-1.75.83L376.21,85c-3.08,1.74-14.73,8.35-18.74,11.07C352.61,99.38,339.81,109.47,337.46,111.33Z"/><path class="cls-2" d="M389.12,80.27a.56.56,0,0,1,.4-.62c.52-.15,1.33-.32,1.56-.08,15.12,15.67,8.9,46.68,8.66,47.83l5,1.07a1.4,1.4,0,0,1-.07,2s-4.15,3.22-5.41,4.38-4.55,4.79-4.55,4.79-2.59-4.19-3.66-5.49-4.66-4.68-4.66-4.68a1.35,1.35,0,0,1,.16-1.93l6-.59c0-3.53.14-16.94-.21-21.77C391.89,99.36,389.55,83.24,389.12,80.27Z"/><path class="cls-2" d="M389.74,140a.56.56,0,0,1,.37.64c-.11.53-.32,1.33-.64,1.42-20.84,6.3-45.59-13.39-46.51-14.13l-3.22,3.92a1.4,1.4,0,0,1-1.78-1s-1-5.16-1.43-6.81-2.19-6.24-2.19-6.24,4.91-.39,6.55-.75,6.29-2,6.29-2a1.35,1.35,0,0,1,1.65,1l-2.22,5.63c3.13,1.64,15,7.86,19.46,9.75C371.48,133.76,386.9,139,389.74,140Z"/><line class="cls-1" x1="156.47" y1="217.59" x2="206.81" y2="217.73"/><line class="cls-1" x1="155.81" y1="219.99" x2="207.56" y2="220.14"/><line class="cls-1" x1="155.78" y1="222.94" x2="206.81" y2="223.09"/><line class="cls-1" x1="263.86" y1="217.2" x2="314.9" y2="217.34"/><line class="cls-1" x1="263.34" y1="219.6" x2="315.65" y2="219.75"/><line class="cls-1" x1="263.26" y1="222.55" x2="314.9" y2="222.7"/><line class="cls-1" x1="369.72" y1="217.58" x2="421.81" y2="217.73"/><line class="cls-1" x1="370.81" y1="219.99" x2="422.56" y2="220.14"/><line class="cls-1" x1="369.72" y1="222.94" x2="421.81" y2="223.09"/></g></g></svg>
