<svg xmlns="http://www.w3.org/2000/svg" viewBox="0 0 612 792"><defs><style>.cls-1,.cls-4{fill:none;}.cls-2{fill:#fff;}.cls-2,.cls-3,.cls-4{stroke:#231f20;stroke-miterlimit:10;}.cls-3{fill:#231f20;}</style></defs><title>icon 1</title><g id="Layer_2" data-name="Layer 2"><path class="cls-1" d="M394.13,298,407,327.56l12.82,29.52L297,356.56,174.16,356l10.92-29L196,298l.68-1.8.68-1.8h0l3.55-9.44,3.55-9.44.18-.48.18-.48,89.76.48,89.76.48,4.86,11.19,4.86,11.19h0l0,.07ZM205.52,275.53l-15,39.78-15,39.78,121.37.52,121.37.52L401,316.3l-17.29-39.82-89.1-.48Z"/><path class="cls-1" d="M395.19,298l13,30,13,30L297,357.52,172.76,357l11.1-29.47L195,298l.18-.48.18-.48.54-1.44.54-1.44h0l.85-2.24.85-2.24h0l2.66-7.06,2.66-7.06.18-.48.18-.48.18-.48.18-.48,90.42.48,90.42.48.21.48.21.48,3.71,8.54,3.71,8.54,1.18,2.72Zm-11.48-21.55-89.1-.48-89.1-.48-15,39.78-15,39.78,121.37.52,121.37.52L401,316.3Z"/><polygon class="cls-1" points="418.29 356.12 401 316.3 383.71 276.49 294.61 276.01 205.51 275.53 190.54 315.3 175.56 355.08 296.92 355.6 418.29 356.12"/><path class="cls-2" d="M440.12,297.08l-1.91-64.63-1.91-64.63a19.61,19.61,0,0,0-5.6-13.14,20.25,20.25,0,0,0-13.12-6.05l-10.75-.75-10.75-.75-.49,0-.49,0v6.68h.76v-5.67h.21l10.72.75,10.72.75a19.24,19.24,0,0,1,12.5,5.74,18.68,18.68,0,0,1,5.32,12.52L437.22,232l1.89,64.13H395.67L393,284.86l-2.63-11.26H198.66l-1.77,11.26-1.77,11.26H150.9l2.41-66,2.41-66a16.48,16.48,0,0,1,5.15-11.42A17.07,17.07,0,0,1,172.67,148H195v5.74h1.25l0-.48,0-.48H196V147H172.67A18.05,18.05,0,0,0,160.22,152,17.43,17.43,0,0,0,154.75,164l-2.43,66.53-2.43,66.53H196l.22-1.44.22-1.44h0l1.54-9.8,1.54-9.8H389.62l2.63,11.26,2.63,11.26h45.23Z"/><path class="cls-2" d="M437.29,167.79l1.92,65.12L441.13,298h-47v-.13h0l-.62-2.65-.62-2.65-2-8.54-2-8.54H200.34l-1.11,7.07-1.11,7.07h0l-.37,2.36-.37,2.36h0l-.28,1.81L196.8,298H148.87l2.45-67,2.45-67a18.37,18.37,0,0,1,5.75-12.72,19,19,0,0,1,13.15-5.19h24.26v5.74h.46l0,.48,0,.48h-1l0,.48,0,.48H195V148H172.67a17.07,17.07,0,0,0-11.79,4.66,16.48,16.48,0,0,0-5.15,11.42l-2.41,66-2.41,66h44.22l1.77-11.26,1.77-11.26H390.4L393,284.86l2.63,11.26h43.44L437.22,232l-1.89-64.13A18.68,18.68,0,0,0,430,155.33a19.24,19.24,0,0,0-12.5-5.74l-10.72-.75-10.72-.75h-.21v5.67h-.76v-6.68h-.21v5.74h-.76V146l1,.07,1,.07,10.79.75,10.79.75A21.23,21.23,0,0,1,431.43,154,20.57,20.57,0,0,1,437.29,167.79Z"/><path class="cls-2" d="MNaN,NaN,NaN,NaN,NaN,NaN,NaN,NaN,NaN,NaNZ"/><path class="cls-2" d="M395.1,144.81a5,5,0,0,0-1.53-3.62,5.21,5.21,0,0,0-3.69-1.48l-94.24.76-94.24.76a4.49,4.49,0,0,0-3,1.16,4.34,4.34,0,0,0-1.42,2.83l0,.43,0,.43-.3,3.35-.3,3.35h1l0-.48,0-.48.29-3.26.29-3.26a3.36,3.36,0,0,1,1.1-2.21,3.49,3.49,0,0,1,2.33-.9l94.24-.76,94.24-.76h0a4.22,4.22,0,0,1,3,1.2,4.07,4.07,0,0,1,1.24,2.94v8h.76V147h.21v-2.25Z"/><path class="cls-2" d="M394.26,140.51a6,6,0,0,1,1.82,4.3v3.27h-.21v5.67h-.76v-6.68h-.21v5.74h-.76v-8a4.07,4.07,0,0,0-1.24-2.94,4.22,4.22,0,0,0-3-1.2h0l-94.24.76-94.24.76a3.49,3.49,0,0,0-2.33.9,3.36,3.36,0,0,0-1.1,2.21l-.29,3.26-.29,3.26,0,.48,0,.48h-1l0,.48,0,.48h-1l.3-3.35.3-3.35,0-.48,0-.48,0-.48,0-.48a5.28,5.28,0,0,1,1.72-3.45,5.45,5.45,0,0,1,3.64-1.41l94.24-.76,94.24-.76a6.42,6.42,0,0,1,2.36.45A6.14,6.14,0,0,1,394.26,140.51Z"/><path class="cls-2" d="M439.11,296.12,437.22,232l-1.89-64.13A18.68,18.68,0,0,0,430,155.33a19.24,19.24,0,0,0-12.5-5.74l-10.72-.75-10.72-.75h-.21v5.67h-.76v-6.68h-.21v5.74h-.76v-8a4.07,4.07,0,0,0-1.24-2.94,4.22,4.22,0,0,0-3-1.2h0l-94.24.76-94.24.76a3.49,3.49,0,0,0-2.33.9,3.36,3.36,0,0,0-1.1,2.21l-.29,3.26-.29,3.26,0,.48,0,.48h-1l0,.48,0,.48H195V148H172.67a17.07,17.07,0,0,0-11.79,4.66,16.48,16.48,0,0,0-5.15,11.42l-2.41,66-2.41,66h44.22l1.77-11.26,1.77-11.26H390.4L393,284.86l2.63,11.26h43.44Z"/><path class="cls-2" d="M410.86,174.2a3.12,3.12,0,0,0-.94-2.23,3.25,3.25,0,0,0-4.54,0,3.12,3.12,0,0,0,0,4.46,3.25,3.25,0,0,0,4.54,0A3.12,3.12,0,0,0,410.86,174.2Z"/><path class="cls-2" d="M410.86,185.54a3.12,3.12,0,0,0-.94-2.23,3.25,3.25,0,0,0-4.54,0,3.12,3.12,0,0,0,0,4.46,3.25,3.25,0,0,0,4.54,0A3.12,3.12,0,0,0,410.86,185.54Z"/><path class="cls-2" d="M200.24,138.75H391.65a4.43,4.43,0,0,1,4.43,4.43V155a0,0,0,0,1,0,0H195.26a0,0,0,0,1,0,0V143.73A5,5,0,0,1,200.24,138.75Z"/><line class="cls-3" x1="197.21" y1="341.81" x2="381.02" y2="341.16"/><line class="cls-3" x1="192.09" y1="344.9" x2="386.13" y2="344.44"/><line class="cls-3" x1="202.58" y1="337.45" x2="375.64" y2="336.96"/><line class="cls-3" x1="217.53" y1="329.63" x2="360.69" y2="329.36"/><line class="cls-3" x1="222.58" y1="325.59" x2="355.64" y2="325.34"/><line class="cls-3" x1="228.03" y1="320.96" x2="347.83" y2="320.73"/><line class="cls-3" x1="209.81" y1="333.7" x2="368.41" y2="333.4"/><polygon class="cls-4" points="406.39 351.93 185.83 351.93 205.51 275.53 382.32 275.53 406.39 351.93"/></g></svg>