<svg xmlns="http://www.w3.org/2000/svg" viewBox="0 0 352.08 279.59"><defs><style>.cls-1,.cls-2,.cls-3{fill:none;stroke:#fff;stroke-miterlimit:10;}.cls-1{stroke-width:2px;}.cls-2{stroke-width:4px;}</style></defs><title>indkøbsvogn 6</title><g id="Layer_2" data-name="Layer 2"><g id="Layer_2-2" data-name="Layer 2"><path class="cls-1" d="M309.89,238H61.49a32.07,32.07,0,0,1-32.07-32.07V2"/><line class="cls-2" y1="2" x2="30.42" y2="2"/><polygon class="cls-1" points="316.95 194.03 29.42 194.03 29.42 26 350.86 26 316.95 194.03"/><circle class="cls-1" cx="259.93" cy="258.75" r="19.84"/><circle class="cls-1" cx="86.28" cy="258.75" r="19.84"/><circle class="cls-3" cx="86.28" cy="258.75" r="16"/><circle class="cls-3" cx="259.72" cy="258.75" r="16"/><line class="cls-3" x1="50.97" y1="26" x2="50.34" y2="194.03"/><line class="cls-3" x1="74.61" y1="26" x2="73.98" y2="194.03"/><line class="cls-3" x1="99.76" y1="26" x2="99.13" y2="194.03"/><line class="cls-3" x1="128.03" y1="26" x2="127.4" y2="194.03"/><line class="cls-3" x1="158.06" y1="26" x2="157.43" y2="194.03"/><line class="cls-3" x1="190.32" y1="26" x2="189.7" y2="194.03"/><line class="cls-3" x1="224.67" y1="25.88" x2="224.04" y2="193.92"/><line class="cls-3" x1="29.42" y1="145.45" x2="326.54" y2="146.51"/><line class="cls-3" x1="29.12" y1="44.34" x2="346.93" y2="45.47"/><line class="cls-3" x1="29.12" y1="62.61" x2="343.24" y2="63.72"/><line class="cls-3" x1="29.12" y1="86.58" x2="338.41" y2="87.68"/><line class="cls-3" x1="29.94" y1="115.56" x2="332.57" y2="116.63"/></g></g></svg>