<svg xmlns="http://www.w3.org/2000/svg" viewBox="0 0 355.09 290.59"><defs><style>.cls-1,.cls-2,.cls-3,.cls-4{fill:none;stroke:#fff;stroke-miterlimit:10;}.cls-1{stroke-width:10px;}.cls-2{stroke-width:14px;}.cls-3{stroke-width:3px;}.cls-4{stroke-width:5px;}</style></defs><title>indkøbsvogn15</title><g id="Layer_2" data-name="Layer 2"><g id="Layer_2-2" data-name="Layer 2"><path class="cls-1" d="M307.89,236H59.49a32.07,32.07,0,0,1-32.07-32.07V0"/><line class="cls-2" y1="7" x2="30.89" y2="7"/><polygon class="cls-1" points="314.95 176.7 27.42 176.7 27.42 24 348.86 24 314.95 176.7"/><circle class="cls-1" cx="257.93" cy="265.75" r="19.84"/><circle class="cls-1" cx="84.28" cy="265.75" r="19.84"/><circle class="cls-3" cx="84.28" cy="266.38" r="9.99"/><circle class="cls-3" cx="257.93" cy="265.75" r="9.07"/><line class="cls-4" x1="48.65" y1="24" x2="48.34" y2="176.7"/><line class="cls-4" x1="72.55" y1="26.02" x2="71.99" y2="175.11"/><line class="cls-4" x1="97.76" y1="24" x2="97.19" y2="176.08"/><line class="cls-4" x1="126.03" y1="24" x2="125.46" y2="174.95"/><line class="cls-4" x1="155.96" y1="20.64" x2="155.37" y2="179.04"/><line class="cls-4" x1="188.39" y1="23.33" x2="187.82" y2="175.76"/><line class="cls-4" x1="222.67" y1="23.88" x2="222.09" y2="179.74"/><line class="cls-4" x1="27.42" y1="143.45" x2="324.54" y2="144.51"/><line class="cls-4" x1="27.12" y1="42.34" x2="344.93" y2="43.47"/><line class="cls-4" x1="27.12" y1="60.61" x2="341.24" y2="61.72"/><line class="cls-4" x1="27.12" y1="84.58" x2="336.41" y2="85.68"/><line class="cls-4" x1="27.94" y1="113.56" x2="330.57" y2="114.63"/></g></g></svg>
