<svg xmlns="http://www.w3.org/2000/svg" viewBox="0 0 426.46 322.49"><defs><style>.cls-1,.cls-2{fill:none;stroke:#fff;stroke-miterlimit:10;}.cls-2{stroke-width:5px;}</style></defs><title>patroner</title><g id="Layer_2" data-name="Layer 2"><g id="Layer_2-2" data-name="Layer 2"><path class="cls-1" d="M164,79.89"/><path class="cls-2" d="M106.77,47.72V319.66a.16.16,0,0,1-.26.13L4.68,242.94,2.5,6.06a.16.16,0,0,1,.23-.15Z"/><path class="cls-2" d="M203.28,47.08a0,0,0,0,1,0,0l-92.87.6-3.64,0L3,5.89a.19.19,0,0,1,.07-.37L79,2.72a1.78,1.78,0,0,1,.66.1l30.46,10.9Z"/><polygon class="cls-2" points="203.28 249.53 203.28 319.99 171.83 319.99 184.32 297.37 193.94 279.93 203.28 249.53"/><polygon class="cls-2" points="209.26 230.06 203.28 249.53 193.94 279.93 184.32 297.37 171.83 319.99 112.77 319.99 138.93 280.17 142.91 266.12 153.15 230.03 155.02 204.76 209.24 204.76 209.26 230.06"/><path class="cls-2" d="M203.28,47.72v157H155L153.15,230l-10.24,36.09-4,14.05L112.77,320h-5.59a.41.41,0,0,1-.41-.41V47.72Z"/><path class="cls-2" d="M214.29,47.72v272a.11.11,0,0,1-.18.09l-10.83-8.17V249.53l6-19.47,0-25.29h-6v-157H110.41v0l92.87-.6a0,0,0,0,0,0,0L110.1,13.73,110,6.49a.46.46,0,0,1,.63-.43Z"/><path class="cls-2" d="M310.8,47.08h0l-93.21.61-3.29,0h0L110.9,5.89a.12.12,0,0,1,0-.23l75.77-3a.68.68,0,0,1,.26,0L217.27,13.6Z"/><polygon class="cls-2" points="423.96 229.85 417.98 249.32 408.64 279.72 386.53 319.78 327.47 319.78 353.63 279.96 367.85 229.82 369.72 204.56 423.94 204.56 423.96 229.85"/><path class="cls-2" d="M418,47.51v157H369.72l-1.87,25.26L353.63,280l-26.16,39.82h-5.85a.15.15,0,0,1-.15-.15V47.51Z"/><polygon class="cls-2" points="408.64 279.72 417.98 249.32 417.98 319.78 386.53 319.78 408.64 279.72"/><polygon class="cls-2" points="316.79 230.06 310.81 249.53 301.47 279.93 291.82 297.42 279.36 319.99 220.3 319.99 246.46 280.17 250.43 266.18 260.68 230.03 262.55 204.76 316.77 204.76 316.79 230.06"/><path class="cls-2" d="M310.81,47.72v157H262.55L260.68,230l-10.25,36.15-4,14L220.3,320h-5.79a.21.21,0,0,1-.21-.21V47.72Z"/><polygon class="cls-2" points="310.81 249.53 310.81 319.99 279.36 319.99 291.82 297.42 301.47 279.93 310.81 249.53"/><path class="cls-2" d="M321.46,47.52V319.69s.16.1,0,0l-10.65-8V249.53l6-19.47,0-25.29h-6v-157H217.59v0l93.21-.61h0L217.27,13.6l-.06-6.92a.72.72,0,0,1,1-.67Z"/><path class="cls-2" d="M321.46,47.51,218.28,6a.09.09,0,0,1,0-.17L294,2.5H294L418,46.88h0Z"/><path class="cls-1" d="M270.29,80.25"/><path class="cls-1" d="M377.46,80.25"/><line class="cls-1" x1="156.47" y1="217.59" x2="206.81" y2="217.73"/><line class="cls-1" x1="155.81" y1="219.99" x2="207.56" y2="220.14"/><line class="cls-1" x1="155.78" y1="222.94" x2="206.81" y2="223.09"/><line class="cls-1" x1="263.86" y1="217.2" x2="314.9" y2="217.34"/><line class="cls-1" x1="263.34" y1="219.6" x2="315.65" y2="219.75"/><line class="cls-1" x1="263.26" y1="222.55" x2="314.9" y2="222.7"/><line class="cls-1" x1="369.72" y1="217.58" x2="421.81" y2="217.73"/><line class="cls-1" x1="370.81" y1="219.99" x2="422.56" y2="220.14"/><line class="cls-1" x1="369.72" y1="222.94" x2="421.81" y2="223.09"/></g></g></svg>
