<svg xmlns="http://www.w3.org/2000/svg" viewBox="0 0 423.46 319.49"><defs><style>.cls-1{fill:none;stroke:#fff;stroke-miterlimit:10;stroke-width:2px;}</style></defs><title>patroner 13</title><g id="Layer_2" data-name="Layer 2"><g id="Layer_2-2" data-name="Layer 2"><path class="cls-1" d="M105.27,46.22V318.16a.16.16,0,0,1-.26.13L3.18,241.44,1,4.56a.16.16,0,0,1,.23-.15Z"/><path class="cls-1" d="M201.78,45.58a0,0,0,0,1,0,0l-92.87.6-3.64,0L1.5,4.39A.19.19,0,0,1,1.57,4l75.91-2.8a1.78,1.78,0,0,1,.66.1l30.46,10.9Z"/><polygon class="cls-1" points="201.78 248.03 201.78 318.49 170.33 318.49 182.82 295.87 192.44 278.43 201.78 248.03"/><polygon class="cls-1" points="207.76 228.56 201.78 248.03 192.44 278.43 182.82 295.87 170.33 318.49 111.27 318.49 137.43 278.67 141.41 264.62 151.65 228.53 153.52 203.26 207.74 203.26 207.76 228.56"/><path class="cls-1" d="M201.78,46.22v157H153.52l-1.87,25.26-10.24,36.09-4,14.05-26.16,39.82h-5.59a.41.41,0,0,1-.41-.41V46.22Z"/><path class="cls-1" d="M212.79,46.22v272a.11.11,0,0,1-.18.09l-10.83-8.17V248l6-19.47,0-25.29h-6v-157H108.91v0l92.87-.6a0,0,0,0,0,0,0L108.6,12.23,108.53,5a.46.46,0,0,1,.63-.43Z"/><path class="cls-1" d="M309.3,45.58h0l-93.21.61-3.29,0h0L109.4,4.39a.12.12,0,0,1,0-.23l75.77-3a.68.68,0,0,1,.26,0L215.77,12.1Z"/><polygon class="cls-1" points="422.46 228.35 416.48 247.82 407.14 278.22 385.03 318.28 325.97 318.28 352.13 278.46 366.35 228.32 368.22 203.06 422.44 203.06 422.46 228.35"/><path class="cls-1" d="M416.48,46v157H368.22l-1.87,25.26-14.22,50.14L326,318.28h-5.85a.15.15,0,0,1-.15-.15V46Z"/><polygon class="cls-1" points="407.14 278.22 416.48 247.82 416.48 318.28 385.03 318.28 407.14 278.22"/><polygon class="cls-1" points="315.29 228.56 309.31 248.03 299.97 278.43 290.32 295.92 277.86 318.49 218.8 318.49 244.96 278.67 248.93 264.68 259.18 228.53 261.05 203.26 315.27 203.26 315.29 228.56"/><path class="cls-1" d="M309.31,46.22v157H261l-1.87,25.26-10.25,36.15-4,14L218.8,318.49H213a.21.21,0,0,1-.21-.21V46.22Z"/><polygon class="cls-1" points="309.31 248.03 309.31 318.49 277.86 318.49 290.32 295.92 299.97 278.43 309.31 248.03"/><path class="cls-1" d="M320,46V318.19s.16.1,0,0l-10.65-8V248l6-19.47,0-25.29h-6v-157H216.09v0l93.21-.61h0L215.77,12.1l-.06-6.92a.72.72,0,0,1,1-.67Z"/><path class="cls-1" d="M320,46,216.78,4.5a.09.09,0,0,1,0-.17L292.48,1h.05L416.48,45.38h0Z"/></g></g></svg>
