<svg xmlns="http://www.w3.org/2000/svg" viewBox="0 0 293.29 220.31"><defs><style>.cls-1,.cls-2{fill:none;stroke:#fff;stroke-miterlimit:10;}.cls-2{stroke-width:2px;}</style></defs><title>Asset 3</title><g id="Layer_2" data-name="Layer 2"><g id="Layer_2-2" data-name="Layer 2"><path class="cls-1" d="M245.78,159.79l12.82,29.52,12.82,29.52-122.81-.53-122.81-.53,10.92-29,10.92-29,.68-1.8.68-1.8h0l3.55-9.44,3.55-9.44.18-.48.18-.48,89.76.48,89.76.48,4.86,11.19,4.86,11.19h0l0,.07ZM57.16,137.28l-15,39.78-15,39.78,121.37.52,121.37.52-17.29-39.82-17.29-39.82-89.1-.48Z"/><path class="cls-1" d="M246.84,159.79l13,30,13,30-124.25-.54-124.25-.54,11.1-29.47,11.1-29.47.18-.48.18-.48.54-1.44.54-1.44h0l.85-2.24.85-2.24h0l2.66-7.06,2.66-7.06.18-.48.18-.48.18-.48.18-.48,90.42.48,90.42.48.21.48.21.48,3.71,8.54,3.71,8.54,1.18,2.72Zm-11.48-21.55-89.1-.48-89.1-.48-15,39.78-15,39.78,121.37.52,121.37.52-17.29-39.82Z"/><polygon class="cls-1" points="269.94 217.87 252.65 178.05 235.36 138.24 146.26 137.76 57.16 137.28 42.18 177.05 27.2 216.83 148.57 217.35 269.94 217.87"/><path class="cls-1" d="M291.77,158.83,289.86,94.2,288,29.57a19.61,19.61,0,0,0-5.6-13.14,20.25,20.25,0,0,0-13.12-6.05l-10.75-.75-10.75-.75-.49,0-.49,0v6.68h.76V9.81h.21l10.72.75,10.72.75a19.24,19.24,0,0,1,12.5,5.74A18.68,18.68,0,0,1,287,29.6l1.89,64.13,1.89,64.13H247.32l-2.63-11.26-2.63-11.26H50.3l-1.77,11.26-1.77,11.26H2.55L5,91.84l2.41-66A16.48,16.48,0,0,1,12.53,14.4,17.07,17.07,0,0,1,24.32,9.75H46.63v5.74h1.25l0-.48,0-.48h-.36V8.79H24.32a18.05,18.05,0,0,0-12.45,4.94A17.43,17.43,0,0,0,6.4,25.78L4,92.3,1.53,158.83H47.61l.22-1.44.22-1.44h0l1.54-9.8,1.54-9.8H241.27l2.63,11.26,2.63,11.26h45.23Z"/><path class="cls-1" d="M288.93,29.54l1.92,65.12,1.92,65.12h-47v-.13h0L245.1,157l-.62-2.65-2-8.54-2-8.54H52l-1.11,7.07-1.11,7.07h0l-.37,2.36L49,156.15h0L48.73,158l-.28,1.81H.52L3,92.77l2.45-67A18.37,18.37,0,0,1,11.17,13,19,19,0,0,1,24.32,7.83H48.58v5.74H49L49,14l0,.48H48l0,.48,0,.48H46.63V9.75H24.32A17.07,17.07,0,0,0,12.53,14.4,16.48,16.48,0,0,0,7.38,25.82L5,91.84l-2.41,66H46.77l1.77-11.26,1.77-11.26H242.05l2.63,11.26,2.63,11.26h43.44l-1.89-64.13L287,29.6a18.68,18.68,0,0,0-5.32-12.52,19.24,19.24,0,0,0-12.5-5.74l-10.72-.75-10.72-.75h-.21v5.67h-.76V8.8h-.21v5.74h-.76V7.78l1,.07,1,.07,10.79.75,10.79.75a21.23,21.23,0,0,1,13.77,6.33A20.57,20.57,0,0,1,288.93,29.54Z"/><path class="cls-1" d="M246.75,6.56a5,5,0,0,0-1.53-3.62,5.21,5.21,0,0,0-3.69-1.48l-94.24.76L53.05,3a4.49,4.49,0,0,0-3,1.16A4.34,4.34,0,0,0,48.65,7l0,.43,0,.43-.3,3.35L48,14.53h1L49,14l0-.48.29-3.26L49.63,7a3.36,3.36,0,0,1,1.1-2.21,3.49,3.49,0,0,1,2.33-.9l94.24-.76,94.24-.76h0a4.22,4.22,0,0,1,3,1.2,4.07,4.07,0,0,1,1.24,2.94v8h.76V8.79h.21V6.56Z"/><path class="cls-1" d="M245.91,2.26a6,6,0,0,1,1.82,4.3V9.83h-.21v5.67h-.76V8.8h-.21v5.74h-.76v-8a4.07,4.07,0,0,0-1.24-2.94,4.22,4.22,0,0,0-3-1.2h0l-94.24.76-94.24.76a3.49,3.49,0,0,0-2.33.9A3.36,3.36,0,0,0,49.63,7l-.29,3.26L49,13.57,49,14l0,.48H48l0,.48,0,.48h-1l.3-3.35.3-3.35,0-.48,0-.48,0-.48,0-.48A5.28,5.28,0,0,1,49.4,3.42,5.45,5.45,0,0,1,53,2l94.24-.76L241.52.5a6.42,6.42,0,0,1,2.36.45A6.14,6.14,0,0,1,245.91,2.26Z"/><path class="cls-1" d="M290.76,157.87l-1.89-64.13L287,29.6a18.68,18.68,0,0,0-5.32-12.52,19.24,19.24,0,0,0-12.5-5.74l-10.72-.75-10.72-.75h-.21v5.67h-.76V8.8h-.21v5.74h-.76v-8a4.07,4.07,0,0,0-1.24-2.94,4.22,4.22,0,0,0-3-1.2h0l-94.24.76-94.24.76a3.49,3.49,0,0,0-2.33.9A3.36,3.36,0,0,0,49.63,7l-.29,3.26L49,13.57,49,14l0,.48H48l0,.48,0,.48H46.63V9.75H24.32A17.07,17.07,0,0,0,12.53,14.4,16.48,16.48,0,0,0,7.38,25.82L5,91.84l-2.41,66H46.77l1.77-11.26,1.77-11.26H242.05l2.63,11.26,2.63,11.26h43.44Z"/><path class="cls-1" d="M262.5,35.95a3.12,3.12,0,0,0-.94-2.23,3.25,3.25,0,0,0-4.54,0,3.12,3.12,0,0,0,0,4.46,3.25,3.25,0,0,0,4.54,0A3.12,3.12,0,0,0,262.5,35.95Z"/><path class="cls-1" d="M262.5,47.29a3.12,3.12,0,0,0-.94-2.23,3.25,3.25,0,0,0-4.54,0,3.12,3.12,0,0,0,0,4.46,3.25,3.25,0,0,0,4.54,0A3.12,3.12,0,0,0,262.5,47.29Z"/><path class="cls-1" d="M51.89.5H243.3a4.43,4.43,0,0,1,4.43,4.43V16.72a0,0,0,0,1,0,0H46.9a0,0,0,0,1,0,0V5.48A5,5,0,0,1,51.89.5Z"/><line class="cls-1" x1="59.29" y1="199.2" x2="222.23" y2="199.2"/><line class="cls-1" x1="48.86" y1="203.56" x2="232.66" y2="202.91"/><line class="cls-1" x1="43.74" y1="206.65" x2="237.78" y2="206.19"/><line class="cls-1" x1="54.23" y1="199.2" x2="227.29" y2="198.71"/><line class="cls-1" x1="69.18" y1="191.38" x2="212.34" y2="191.11"/><line class="cls-1" x1="74.23" y1="187.34" x2="207.29" y2="187.09"/><line class="cls-1" x1="79.68" y1="182.71" x2="199.48" y2="182.48"/><line class="cls-1" x1="61.46" y1="195.45" x2="220.06" y2="195.15"/><line class="cls-2" x1="140.76" y1="203.51" x2="140.76" y2="203.51"/><polygon class="cls-1" points="258.04 213.68 37.48 213.68 57.16 137.28 233.97 137.28 258.04 213.68"/></g></g></svg>
