<svg xmlns="http://www.w3.org/2000/svg" viewBox="0 0 290.28 218.89"><defs><style>.cls-1,.cls-2{fill:none;stroke:#fff;stroke-miterlimit:10;}.cls-2{stroke-width:2px;}</style></defs><title>printer 10</title><g id="Layer_2" data-name="Layer 2"><g id="Layer_2-2" data-name="Layer 2"><path class="cls-1" d="M244.27,158.37l12.82,29.52,12.82,29.52-122.81-.53-122.81-.53,10.92-29,10.92-29,.68-1.8.68-1.8h0l3.55-9.44,3.55-9.44.18-.48.18-.48,89.76.48,89.76.48L239.35,147l4.86,11.19h0l0,.07ZM55.65,135.86l-15,39.78-15,39.78,121.37.52,121.37.52-17.29-39.82-17.29-39.82-89.1-.48Z"/><path class="cls-1" d="M245.32,158.37l13,30,13,30-124.25-.54L22.9,217.31,34,187.84l11.1-29.47.18-.48.18-.48L46,156l.54-1.44h0l.85-2.24.85-2.24h0l2.66-7.06,2.66-7.06.18-.48.18-.48.18-.48.18-.48,90.42.48,90.42.48.21.48.21.48,3.71,8.54,3.71,8.54,1.18,2.72Zm-11.48-21.55-89.1-.48-89.1-.48-15,39.78-15,39.78,121.37.52,121.37.52-17.29-39.82Z"/><polygon class="cls-1" points="268.42 216.45 251.13 176.63 233.84 136.82 144.75 136.34 55.65 135.86 40.67 175.63 25.69 215.41 147.06 215.93 268.42 216.45"/><path class="cls-2" d="M244.87,10.28l-.1,2.94,0,.67a.73.73,0,0,1-.47-.4c-.07-.22,0-4.37,0-4.37v-4A4.07,4.07,0,0,0,243,2.2a4.22,4.22,0,0,0-3-1.2h0l-94.24.76-94.24.76a3.49,3.49,0,0,0-2.33.9,3.36,3.36,0,0,0-1.1,2.21l-.29,3.26-.29,3.26,0,.48,0,.48,0,.51-.11.33L47,14.1l-.27,0"/><path class="cls-2" d="M244.72,14.08"/><path class="cls-2" d="M46.59,14.56l.31-3.27.12-3H22.81A17.07,17.07,0,0,0,11,13,16.48,16.48,0,0,0,5.86,24.4l-2.41,66L1,156.45H45.25L47,145.19l1.77-11.26H240.54l2.63,11.26,2.63,11.26h43.44l-1.89-64.13-1.89-64.13a18.68,18.68,0,0,0-5.32-12.52,19.24,19.24,0,0,0-12.5-5.74l-10.72-.75-10.72-.75h-.11l-1.21-.09-.06,3-.12,2.72"/><path class="cls-2" d="M261,34.53a3.12,3.12,0,0,0-.94-2.23,3.25,3.25,0,0,0-4.54,0,3.12,3.12,0,0,0,0,4.46,3.25,3.25,0,0,0,4.54,0A3.12,3.12,0,0,0,261,34.53Z"/><path class="cls-2" d="M261,45.87a3.12,3.12,0,0,0-.94-2.23,3.25,3.25,0,0,0-4.54,0,3.12,3.12,0,0,0,0,4.46,3.25,3.25,0,0,0,4.54,0A3.12,3.12,0,0,0,261,45.87Z"/><line class="cls-1" x1="57.78" y1="197.78" x2="220.71" y2="197.78"/><line class="cls-1" x1="47.34" y1="202.14" x2="231.15" y2="201.49"/><line class="cls-1" x1="42.22" y1="205.23" x2="236.27" y2="204.77"/><line class="cls-1" x1="52.72" y1="197.78" x2="225.77" y2="197.29"/><line class="cls-1" x1="67.67" y1="189.96" x2="210.82" y2="189.69"/><line class="cls-1" x1="72.72" y1="185.92" x2="205.77" y2="185.67"/><line class="cls-1" x1="78.17" y1="181.29" x2="197.97" y2="181.06"/><line class="cls-1" x1="59.95" y1="194.03" x2="218.55" y2="193.73"/><line class="cls-2" x1="139.25" y1="202.09" x2="139.25" y2="202.09"/></g></g></svg>
