<svg xmlns="http://www.w3.org/2000/svg" viewBox="0 0 322.03 321.08"><defs><style>.cls-1,.cls-2{fill:none;stroke:#fff;stroke-miterlimit:10;}.cls-2{stroke-width:2px;}</style></defs><title>recycle 4</title><g id="Layer_2" data-name="Layer 2"><g id="Layer_2-2" data-name="Layer 2"><path class="cls-1" d="M196.16,35.14"/><path class="cls-2" d="M15.44,175.54a2.53,2.53,0,0,1-3.34-.17c-1.76-1.71-4.25-4.46-3.83-5.93,27.11-94.54,162.47-140.3,167.52-142l-7-21.8a6.33,6.33,0,0,1,8.12-4.33s22,9,29.36,11.27c7.2,2.25,29,7,29,7s-10.53,19.6-13.21,26.71c-2.56,6.77-7.76,28.82-7.76,28.82a6.09,6.09,0,0,1-7.92,3.77L190.51,56.65c-13.91,7.85-66.57,37.74-84.68,50C83.9,121.54,26.09,167.13,15.44,175.54Z"/><path class="cls-2" d="M248.84,35.21a2.53,2.53,0,0,1,1.82-2.81c2.37-.67,6-1.45,7-.35C326,102.82,297.9,242.92,296.83,248.13L319.2,253a6.33,6.33,0,0,1-.32,9.2S300.14,276.72,294.44,282c-5.55,5.11-20.57,21.65-20.57,21.65s-11.7-18.92-16.51-24.8c-4.58-5.6-21.07-21.14-21.07-21.14a6.09,6.09,0,0,1,.7-8.74l27.22-2.67c.16-16,.62-76.52-.95-98.34C261.35,121.49,250.8,48.63,248.84,35.21Z"/><path class="cls-2" d="M251.64,305.15a2.53,2.53,0,0,1,1.67,2.9c-.49,2.41-1.45,6-2.9,6.43-94.14,28.45-206-60.5-210.12-63.83L25.76,268.33a6.33,6.33,0,0,1-8-4.48s-4.37-23.31-6.44-30.78c-2-7.27-9.87-28.18-9.87-28.18s22.18-1.77,29.61-3.37c7.08-1.52,28.43-9.1,28.43-9.1A6.09,6.09,0,0,1,66.89,197l-10,25.43c14.14,7.43,67.8,35.49,87.93,44.05C169.16,276.88,238.8,300.76,251.64,305.15Z"/></g></g></svg>
